<svg width="161" height="161" viewBox="0 0 161 161" fill="none" xmlns="http://www.w3.org/2000/svg">
<style>.mark{fill:#111}@media (prefers-color-scheme: dark){.mark{fill:#fff}}</style>
<path d="M55.9492 35.2784C56.4408 34.2953 57.3747 33.9512 58.751 34.2461C60.029 34.5411 61.1103 34.836 61.9951 35.1309C64.2562 36.0157 66.6156 36.8513 69.0732 37.6377C71.4326 38.3259 73.792 39.0632 76.1514 39.8496C76.7411 40.1445 77.3311 40.3904 77.9209 40.587C78.5107 40.6852 79.1007 40.8328 79.6904 41.0293C79.8693 41.0975 80.0499 41.1621 80.2295 41.2295C82.6734 40.4409 85.0795 39.6549 87.4453 38.8663C90.1979 38.0798 92.9506 37.195 95.7031 36.212C96.5879 36.0153 97.4235 35.7696 98.21 35.4746L100.864 34.5899L102.339 34.295C102.83 34.295 103.273 34.3933 103.666 34.5899C104.354 34.8848 104.797 35.5238 104.993 36.5069C105.091 36.7035 105.091 36.9001 104.993 37.0967C104.993 37.3916 105.042 37.6374 105.141 37.834V49.4981C108.935 50.7547 112.74 52.012 116.557 53.2686L140.445 61.2315C142.706 62.1162 145.017 62.9027 147.376 63.5909C149.637 64.279 151.898 65.0164 154.159 65.8028C155.535 66.2943 156.814 66.7859 157.993 67.2774C159.074 67.7689 159.812 68.7522 160.205 70.2266C160.402 71.013 160.5 71.8979 160.5 72.8809C160.402 73.8639 160.353 74.798 160.353 75.6827V86.3008C160.353 87.3821 160.402 88.5621 160.5 89.8399C160.5 91.0194 160.254 92.0027 159.763 92.7891C159.173 93.8702 158.288 94.6078 157.108 95.001C155.831 95.2959 154.601 95.6401 153.422 96.0332L147.229 98.0977C145.066 98.6875 142.952 99.3266 140.888 100.015C134.694 102.177 128.452 104.242 122.16 106.208C116.487 107.981 110.814 109.834 105.141 111.767V123.362C105.141 124.345 104.944 125.132 104.551 125.722C104.059 126.705 103.125 127.049 101.749 126.754C100.471 126.459 99.3897 126.164 98.5049 125.869C96.2438 124.984 93.8844 124.149 91.4268 123.362C89.0674 122.674 86.708 121.937 84.3486 121.15C83.7589 120.856 83.1689 120.61 82.5791 120.413C81.9893 120.315 81.3993 120.167 80.8096 119.971C80.6303 119.902 80.4495 119.837 80.2695 119.77C77.8258 120.558 75.4204 121.345 73.0547 122.134C70.3021 122.92 67.5494 123.805 64.7969 124.788C63.9121 124.985 63.0765 125.231 62.29 125.525L59.6357 126.41L58.1611 126.705C57.6696 126.705 57.2272 126.607 56.834 126.41C56.1458 126.115 55.7034 125.476 55.5068 124.493C55.4085 124.297 55.4085 124.1 55.5068 123.903C55.5068 123.608 55.4577 123.363 55.3594 123.166V111.501C51.5651 110.244 47.7596 108.988 43.9434 107.731L20.0547 99.7686C17.7937 98.8839 15.4833 98.0974 13.124 97.4092C10.863 96.7211 8.60181 95.9837 6.34082 95.1973C4.96465 94.7058 3.68643 94.2142 2.50684 93.7227C1.42551 93.2312 0.688174 92.248 0.294922 90.7735C0.0983187 89.9871 1.39645e-05 89.1022 0 88.1192C0.0982996 87.1362 0.147452 86.2021 0.147461 85.3174V74.7002C0.147461 73.619 0.0982847 72.439 0 71.1612C5.15631e-08 69.9815 0.245826 68.9984 0.737305 68.212C1.32716 67.1306 2.2119 66.3923 3.3916 65.9991C4.66945 65.7042 5.89857 65.36 7.07812 64.9668L13.2715 62.9024C15.4342 62.3126 17.5479 61.6735 19.6123 60.9854C25.8057 58.8226 32.0482 56.7582 38.3398 54.792C44.0131 53.0191 49.6861 51.1652 55.3594 49.2325V37.6377C55.3594 36.6547 55.556 35.8682 55.9492 35.2784ZM80.084 64.6612C76.4424 65.8122 72.8017 66.9485 69.1602 68.0645C63.065 70.0307 56.9692 71.9968 50.874 73.9629L45.8604 75.4375C44.1892 76.0274 42.5178 76.5681 40.8467 77.0596C39.962 77.3545 39.0771 77.6495 38.1924 77.9444C37.3077 78.2393 36.5211 78.6326 35.833 79.1241C35.6365 79.2223 35.4889 79.3207 35.3906 79.419C35.3905 79.6155 35.2922 79.8123 35.0957 80.0088C35.0958 81.09 35.5382 81.7784 36.4229 82.0733C37.4059 82.4665 38.2907 82.8106 39.0771 83.1055C41.1416 83.892 43.2552 84.5801 45.418 85.17C47.5807 85.7598 49.7927 86.448 52.0537 87.2344C58.5421 89.3972 64.982 91.4616 71.3721 93.4278C74.3865 94.3869 77.4006 95.3576 80.415 96.3379C84.0567 95.1868 87.6982 94.0526 91.3398 92.9366C97.435 90.9704 103.531 89.0043 109.626 87.0381L114.64 85.5635C116.311 84.9737 117.982 84.432 119.653 83.9405C120.538 83.6456 121.423 83.3506 122.308 83.0557C123.192 82.7608 123.979 82.3675 124.667 81.876C124.863 81.7777 125.011 81.6794 125.109 81.5811C125.11 81.3846 125.208 81.1877 125.404 80.9913C125.404 79.9101 124.962 79.2217 124.077 78.9268C123.094 78.5336 122.209 78.1895 121.423 77.8946C119.358 77.1081 117.245 76.42 115.082 75.8301C112.919 75.2403 110.707 74.5521 108.446 73.7657C101.958 71.6029 95.518 69.5385 89.1279 67.5723C86.1131 66.613 83.0988 65.6417 80.084 64.6612Z" class="mark"/>
</svg>
